<svg width="1131" height="269" viewBox="0 0 1131 269" fill="none" xmlns="http://www.w3.org/2000/svg">
<g filter="url(#filter0_d_102_2)">
<path d="M65.144 177L46.04 109.8H66.776L74.648 140.136C75.16 142.12 75.576 144.04 75.896 145.896C76.28 147.688 76.568 149.352 76.76 150.888C76.952 152.424 77.08 153.832 77.144 155.112C77.272 156.392 77.336 157.48 77.336 158.376H75.8C75.8 156.776 75.832 155.08 75.896 153.288C76.024 151.432 76.28 149.448 76.664 147.336C77.048 145.16 77.688 142.76 78.584 140.136L86.936 116.424H102.776L111.128 140.136C112.024 142.696 112.728 145.064 113.24 147.24C113.752 149.352 114.104 151.336 114.296 153.192C114.552 154.984 114.68 156.712 114.68 158.376H113.24C113.24 157.608 113.24 156.744 113.24 155.784C113.24 154.824 113.24 153.768 113.24 152.616C113.304 151.464 113.4 150.248 113.528 148.968C113.656 147.624 113.848 146.216 114.104 144.744C114.36 143.272 114.68 141.736 115.064 140.136L122.936 109.8H143L123.704 177H107.384L92.792 140.808H95.384L82.424 177H65.144ZM209.801 177.96C204.233 177.96 199.273 176.808 194.921 174.504C190.569 172.2 187.145 169.064 184.649 165.096C182.153 161.064 180.905 156.456 180.905 151.272C180.905 146.088 182.153 141.512 184.649 137.544C187.145 133.512 190.569 130.344 194.921 128.04C199.273 125.736 204.233 124.584 209.801 124.584C215.369 124.584 220.297 125.736 224.585 128.04C228.937 130.344 232.329 133.512 234.761 137.544C237.257 141.512 238.505 146.088 238.505 151.272C238.505 156.456 237.257 161.064 234.761 165.096C232.329 169.064 228.937 172.2 224.585 174.504C220.297 176.808 215.369 177.96 209.801 177.96ZM209.801 161.64C211.529 161.64 213.065 161.192 214.409 160.296C215.817 159.4 216.905 158.184 217.673 156.648C218.441 155.048 218.825 153.256 218.825 151.272C218.825 149.224 218.441 147.432 217.673 145.896C216.905 144.296 215.817 143.048 214.409 142.152C213.065 141.256 211.529 140.808 209.801 140.808C208.009 140.808 206.409 141.256 205.001 142.152C203.657 143.048 202.569 144.296 201.737 145.896C200.969 147.432 200.585 149.224 200.585 151.272C200.585 153.256 200.969 155.048 201.737 156.648C202.569 158.184 203.657 159.4 205.001 160.296C206.409 161.192 208.009 161.64 209.801 161.64ZM286.52 177V125.64H304.568L305.72 142.728L301.4 140.04C302.232 137.096 303.544 134.472 305.336 132.168C307.128 129.8 309.272 127.944 311.768 126.6C314.328 125.256 317.048 124.584 319.928 124.584C321.08 124.584 322.168 124.68 323.192 124.872C324.216 125 325.208 125.192 326.168 125.448L320.792 147.048C320.152 146.6 319.128 146.184 317.72 145.8C316.376 145.416 314.904 145.224 313.304 145.224C312.152 145.224 311.096 145.416 310.136 145.8C309.24 146.12 308.472 146.632 307.832 147.336C307.256 148.04 306.808 148.872 306.488 149.832C306.168 150.792 306.008 151.912 306.008 153.192V177H286.52ZM391.368 162.6L381.768 150.504L405.48 125.64H430.824L391.368 162.6ZM372.264 177V105.96H391.752V177H372.264ZM407.208 177L390.12 152.904L403.752 143.112L429.48 177H407.208ZM497.782 177.96C492.214 177.96 487.254 176.808 482.902 174.504C478.55 172.2 475.126 169.064 472.63 165.096C470.134 161.064 468.886 156.456 468.886 151.272C468.886 146.088 470.134 141.512 472.63 137.544C475.126 133.512 478.55 130.344 482.902 128.04C487.254 125.736 492.214 124.584 497.782 124.584C503.35 124.584 508.278 125.736 512.566 128.04C516.918 130.344 520.31 133.512 522.742 137.544C525.238 141.512 526.486 146.088 526.486 151.272C526.486 156.456 525.238 161.064 522.742 165.096C520.31 169.064 516.918 172.2 512.566 174.504C508.278 176.808 503.35 177.96 497.782 177.96ZM497.782 161.64C499.51 161.64 501.046 161.192 502.39 160.296C503.798 159.4 504.886 158.184 505.654 156.648C506.422 155.048 506.806 153.256 506.806 151.272C506.806 149.224 506.422 147.432 505.654 145.896C504.886 144.296 503.798 143.048 502.39 142.152C501.046 141.256 499.51 140.808 497.782 140.808C495.99 140.808 494.39 141.256 492.982 142.152C491.638 143.048 490.55 144.296 489.718 145.896C488.95 147.432 488.566 149.224 488.566 151.272C488.566 153.256 488.95 155.048 489.718 156.648C490.55 158.184 491.638 159.4 492.982 160.296C494.39 161.192 495.99 161.64 497.782 161.64ZM574.501 177V125.64H592.549L593.509 136.008L589.381 137.16C590.085 134.728 591.333 132.584 593.125 130.728C594.981 128.808 597.189 127.304 599.749 126.216C602.309 125.128 605.029 124.584 607.909 124.584C611.749 124.584 615.013 125.384 617.701 126.984C620.389 128.584 622.405 130.952 623.749 134.088C625.157 137.16 625.861 140.904 625.861 145.32V177H606.373V146.952C606.373 145.544 606.149 144.36 605.701 143.4C605.253 142.44 604.581 141.704 603.685 141.192C602.789 140.68 601.733 140.424 600.517 140.424C599.557 140.424 598.661 140.584 597.829 140.904C597.061 141.16 596.389 141.576 595.813 142.152C595.237 142.728 594.789 143.368 594.469 144.072C594.149 144.776 593.989 145.576 593.989 146.472V177H584.293C581.861 177 579.813 177 578.149 177C576.549 177 575.333 177 574.501 177ZM820.67 177V125.64H838.718L839.486 133.704L837.278 132.936C838.238 131.272 839.326 129.928 840.542 128.904C841.822 127.816 843.166 126.952 844.574 126.312C845.982 125.672 847.422 125.224 848.894 124.968C850.366 124.712 851.774 124.584 853.118 124.584C855.358 124.584 857.47 124.904 859.454 125.544C861.438 126.12 863.23 127.176 864.83 128.712C866.43 130.248 867.774 132.456 868.862 135.336L865.886 135.24L866.654 133.896C867.614 132.232 868.766 130.824 870.11 129.672C871.454 128.52 872.926 127.56 874.526 126.792C876.126 126.024 877.758 125.48 879.422 125.16C881.086 124.776 882.686 124.584 884.222 124.584C888.446 124.584 891.998 125.384 894.878 126.984C897.758 128.584 899.902 130.952 901.31 134.088C902.782 137.16 903.518 140.904 903.518 145.32V177H884.03V146.952C884.03 145.544 883.806 144.36 883.358 143.4C882.91 142.44 882.238 141.704 881.342 141.192C880.51 140.68 879.486 140.424 878.27 140.424C877.31 140.424 876.414 140.584 875.582 140.904C874.814 141.16 874.142 141.576 873.566 142.152C873.054 142.728 872.638 143.368 872.318 144.072C871.998 144.776 871.838 145.576 871.838 146.472V177H852.35V146.952C852.35 145.544 852.126 144.36 851.678 143.4C851.23 142.44 850.558 141.704 849.662 141.192C848.83 140.68 847.806 140.424 846.59 140.424C845.63 140.424 844.734 140.584 843.902 140.904C843.134 141.16 842.462 141.576 841.886 142.152C841.374 142.728 840.958 143.368 840.638 144.072C840.318 144.776 840.158 145.576 840.158 146.472V177H820.67ZM954.702 177V125.64H974.19V177H954.702ZM964.494 116.328C961.038 116.328 958.318 115.528 956.334 113.928C954.414 112.328 953.454 110.056 953.454 107.112C953.454 104.424 954.446 102.216 956.43 100.488C958.414 98.76 961.102 97.896 964.494 97.896C967.95 97.896 970.638 98.696 972.558 100.296C974.542 101.896 975.534 104.168 975.534 107.112C975.534 109.8 974.542 112.008 972.558 113.736C970.574 115.464 967.886 116.328 964.494 116.328ZM1044.71 177.864C1040.42 177.864 1036.62 176.744 1033.29 174.504C1029.96 172.2 1027.34 169.064 1025.42 165.096C1023.5 161.064 1022.54 156.456 1022.54 151.272C1022.54 146.024 1023.46 141.416 1025.32 137.448C1027.24 133.416 1029.86 130.28 1033.19 128.04C1036.58 125.736 1040.49 124.584 1044.9 124.584C1047.21 124.584 1049.32 124.904 1051.24 125.544C1053.16 126.184 1054.86 127.08 1056.33 128.232C1057.8 129.384 1059.08 130.728 1060.17 132.264C1061.26 133.736 1062.18 135.336 1062.95 137.064L1059.02 136.968V125.64H1078.12V177H1058.54V164.424L1062.86 164.808C1062.22 166.664 1061.32 168.392 1060.17 169.992C1059.08 171.592 1057.77 172.968 1056.23 174.12C1054.7 175.272 1052.97 176.2 1051.05 176.904C1049.13 177.544 1047.02 177.864 1044.71 177.864ZM1050.28 162.024C1052.14 162.024 1053.7 161.608 1054.98 160.776C1056.33 159.944 1057.32 158.728 1057.96 157.128C1058.66 155.528 1059.02 153.576 1059.02 151.272C1059.02 148.968 1058.66 147.016 1057.96 145.416C1057.32 143.752 1056.33 142.504 1054.98 141.672C1053.7 140.84 1052.14 140.424 1050.28 140.424C1048.42 140.424 1046.86 140.84 1045.58 141.672C1044.3 142.504 1043.3 143.752 1042.6 145.416C1041.96 147.016 1041.64 148.968 1041.64 151.272C1041.64 153.576 1041.96 155.528 1042.6 157.128C1043.3 158.728 1044.3 159.944 1045.58 160.776C1046.86 161.608 1048.42 162.024 1050.28 162.024Z" fill="url(#paint0_linear_102_2)"/>
<path d="M726.5 81C767.093 81 800 113.907 800 154.5C800 195.093 767.093 228 726.5 228C685.907 228 653 195.093 653 154.5C653 113.907 685.907 81 726.5 81ZM715 123V187H739V123H715Z" fill="#F3A955"/>
</g>
<defs>
<filter id="filter0_d_102_2" x="46.04" y="81" width="1040.08" height="158" filterUnits="userSpaceOnUse" color-interpolation-filters="sRGB">
<feFlood flood-opacity="0" result="BackgroundImageFix"/>
<feColorMatrix in="SourceAlpha" type="matrix" values="0 0 0 0 0 0 0 0 0 0 0 0 0 0 0 0 0 0 127 0" result="hardAlpha"/>
<feOffset dx="8" dy="11"/>
<feComposite in2="hardAlpha" operator="out"/>
<feColorMatrix type="matrix" values="0 0 0 0 0.807692 0 0 0 0 0.330067 0 0 0 0 0.330067 0 0 0 1 0"/>
<feBlend mode="normal" in2="BackgroundImageFix" result="effect1_dropShadow_102_2"/>
<feBlend mode="normal" in="SourceGraphic" in2="effect1_dropShadow_102_2" result="shape"/>
</filter>
<linearGradient id="paint0_linear_102_2" x1="47" y1="141" x2="1085" y2="141" gradientUnits="userSpaceOnUse">
<stop stop-color="#E5BA2C"/>
<stop offset="1" stop-color="#FF9B77"/>
</linearGradient>
</defs>
</svg>
